<svg xmlns="http://www.w3.org/2000/svg" width="22" height="22" viewBox="0 0 24 24" fill="none" stroke="#38bdf8" stroke-width="2" stroke-linecap="round" stroke-linejoin="round"><style>.draw{stroke-dasharray:100;stroke-dashoffset:100;animation:draw 9s ease-out infinite}.flame{animation:draw 9s ease-out infinite,flick 3.2s ease-in-out 1.6s infinite}@keyframes draw{0%{stroke-dashoffset:100}14%{stroke-dashoffset:0}100%{stroke-dashoffset:0}}@keyframes flick{0%,100%{opacity:1}50%{opacity:.55}}@media (prefers-reduced-motion:reduce){*{animation:none!important}.draw{stroke-dasharray:none;stroke-dashoffset:0}}</style><path class="draw flame" pathLength="100" d="M4.5 16.5c-1.5 1.26-2 5-2 5s3.74-.5 5-2c.71-.84.7-2.13-.09-2.91a2.18 2.18 0 0 0-2.91-.09z"/><path class="draw" pathLength="100" d="M12 15l-3-3a22 22 0 0 1 2-3.95A12.88 12.88 0 0 1 22 2c0 2.72-.78 7.5-6 11a22.35 22.35 0 0 1-4 2z"/><path class="draw" pathLength="100" d="M9 12H4s.55-3.03 2-4c1.62-1.08 5 0 5 0"/><path class="draw" pathLength="100" d="M12 15v5s3.03-.55 4-2c1.08-1.62 0-5 0-5"/></svg>
